<svg xmlns="http://www.w3.org/2000/svg" width="1024" height="1024" viewBox="0 0 1024 1024" svg-inline="" src="@images/icons/icon-instagram.svg" alt="instagram" role="presentation" focusable="false"><path d="M512 170.88c111.04 0 124.16 0 168 2.56 27.899.361 54.465 5.611 79.028 14.929l-1.588-.529c18.807 7.164 34.763 18.079 47.608 31.921l.072.079c13.82 12.988 24.715 28.92 31.701 46.809l.299.871c8.481 22.992 13.601 49.544 14.077 77.227l.003.213c1.92 43.84 2.56 56.96 2.56 168s0 124.16-2.56 168c-.479 27.896-5.599 54.448-14.618 79.123l.538-1.683c-7.285 18.76-18.18 34.692-31.933 47.618l-.067.062c-12.917 13.921-28.873 24.836-46.827 31.713l-.853.287c-22.975 8.789-49.541 14.039-77.286 14.398l-.154.002c-43.84 2.24-56.96 2.56-168 2.56s-124.16 0-168-2.56c-27.899-.361-54.465-5.611-79.028-14.929l1.588.529c-18.807-7.164-34.763-18.079-47.608-31.921l-.072-.079c-13.921-12.917-24.836-28.873-31.713-46.827l-.287-.853c-8.789-22.975-14.039-49.541-14.398-77.286l-.002-.154c-1.92-43.84-2.56-56.96-2.56-168s0-124.16 2.56-168c.361-27.899 5.611-54.465 14.929-79.028l-.529 1.588c7.164-18.807 18.079-34.763 31.921-47.608l.079-.072c12.917-13.921 28.873-24.836 46.827-31.713l.853-.287c22.975-8.789 49.541-14.039 77.286-14.398l.154-.002c43.84-1.92 56.96-2.56 168-2.56zM512 96c-112.96 0-128 0-171.52 2.56-36.495.707-71.15 7.688-103.222 19.903l2.102-.703c-28.766 11.153-53.299 27.461-73.581 47.98l-.019.02c-20.614 20.254-36.936 44.803-47.525 72.203l-.475 1.397c-11.512 29.97-18.493 64.625-19.195 100.818l-.005.302C96 384 96 399.04 96 512s0 128 2.56 171.52c.707 36.495 7.688 71.15 19.903 103.222l-.703-2.102c11.064 28.797 27.386 53.346 47.97 73.571l.03.029c20.301 20.539 44.834 36.847 72.188 47.515l1.412.485c29.97 11.512 64.625 18.493 100.818 19.195l.302.005C384 928 399.04 928 512 928s128 0 171.52-2.56c36.495-.707 71.15-7.688 103.222-19.903l-2.102.703c55.979-22.133 99.467-65.621 121.096-120.158l.504-1.442c11.512-29.97 18.493-64.625 19.195-100.818l.005-.302C928 640 928 624.96 928 512s0-128-2.56-171.52c-.707-36.495-7.688-71.15-19.903-103.222l.703 2.102c-22.133-55.979-65.621-99.467-120.158-121.096l-1.442-.504c-29.97-11.512-64.625-18.493-100.818-19.195l-.302-.005C640 96 624.96 96 512 96z" fill="#999"></path><path d="M512 298.24c-118.056 0-213.76 95.704-213.76 213.76S393.944 725.76 512 725.76 725.76 630.056 725.76 512 630.056 298.24 512 298.24zm0 352c-76.524 0-138.56-62.036-138.56-138.56S435.475 373.12 512 373.12s138.56 62.035 138.56 138.56v.338V512c0 76.525-62.035 138.56-138.56 138.56zm272-360.32c0 27.57-22.35 49.92-49.92 49.92s-49.92-22.35-49.92-49.92S706.51 240 734.08 240 784 262.35 784 289.92z" fill="#999"></path></svg>