<svg xmlns="http://www.w3.org/2000/svg" width="1024" height="1024" viewBox="0 0 1024 1024" svg-inline="" src="@images/icons/icon-youtube.svg" alt="youtube" role="presentation" focusable="false"><path d="M969.714 286.058c-10.824-40.607-41.978-72.023-81.625-83.029l-.82-.191c-72.723-19.444-364.773-19.444-364.773-19.444s-291.658 0-364.382 19.444c-40.626 11.079-71.942 42.525-82.647 82.408l-.185.814c-12.381 65.579-19.465 141.025-19.465 218.116 0 2.747.01 5.5.023 8.242l-.003-.424c-.019 2.327-.021 5.073-.021 7.818 0 77.099 7.083 152.536 20.637 225.711l-1.171-7.595c10.278 41.503 41.759 73.758 82.009 84.967l.82.194c72.723 19.444 364.382 19.444 364.382 19.444s292.052 0 364.773-19.444c40.466-11.198 71.62-42.615 82.254-82.408l.185-.814c12.381-65.579 19.465-141.025 19.465-218.116 0-2.747-.01-5.5-.023-8.242l.003.424c.021-2.88.036-6.282.036-9.692 0-77.125-7.089-152.591-20.654-225.785l1.173 7.596zM427.225 650.831v-277.66L671.05 512.002z" fill="#999"></path></svg>